<svg version="1.1" xmlns="http://www.w3.org/2000/svg" viewBox="0 0 21.5 21.5" xmlns:xlink="http://www.w3.org/1999/xlink" enable-background="new 0 0 21.5 21.5" style="fill:#EC2731;">
  <g>
    <path fill-rule="evenodd" d="M0.75,11.5h8.189l-5.79,5.791c-0.293,0.293-0.293,0.768,0,1.061   c0.146,0.146,0.338,0.22,0.53,0.22s0.384-0.073,0.53-0.22L10,12.561v8.189c0,0.414,0.336,0.75,0.75,0.75   c0.414,0,0.75-0.336,0.75-0.75v-8.19l5.791,5.791c0.146,0.146,0.338,0.22,0.53,0.22c0.192,0,0.384-0.073,0.53-0.22   c0.293-0.293,0.293-0.768,0-1.061l-5.79-5.791h8.189c0.414,0,0.75-0.336,0.75-0.75c0-0.414-0.336-0.75-0.75-0.75h-8.189   l5.791-5.791c0.293-0.293,0.293-0.768,0-1.061c-0.293-0.293-0.768-0.293-1.06,0L11.5,8.939V0.75C11.5,0.336,11.164,0,10.75,0   C10.336,0,10,0.336,10,0.75v8.189L4.209,3.148c-0.293-0.293-0.768-0.293-1.061,0c-0.293,0.293-0.293,0.768,0,1.061L8.94,10H0.75   C0.336,10,0,10.336,0,10.75C0,11.164,0.336,11.5,0.75,11.5z"/>
  </g>
</svg>
